# xmcd
#
# Track frame offsets: 
#        150
#        13420
#        26320
#        39327
#        52775
#        66827
#        81930
#        96910
#        111372
#        125902
#        135685
#        149525
#        162072
#        175035
#        187417
#        197257
#        208410
#        222110
#        232200
#        243705
#        255822
#        268982
#        281732
#        294072
#
# Disc length: 4059 seconds
#
# Revision: 2
# Processed by: cddbd v1.5.2PL0 Copyright (c) Steve Scherf et al.
# Submitted via: ExactAudioCopy v1.1
#
DISCID=700fd918
DTITLE=Various Artist - Kansas City Blues - Disc 1
DYEAR=1997
DGENRE=Blues
TTITLE0=Jay McShann - Moten Swing (mono)
TTITLE1=Jay McShann - Come On Over To My House (mono)
TTITLE2=Jay McShann - Trouble In Mind (mono)
TTITLE3=Jay McShann - On The Sunny Side Of The Street (mono)
TTITLE4=Jay McShann - Confessin' The Blues (mono)
TTITLE5=Jay McShann - Walkin' Blues (mono)
TTITLE6=Jay McShann - Hard Working Man Blues (mono)
TTITLE7=Jay McShann - When I've Been Drinking (mono)
TTITLE8=Jay McShann - Merry-Go-Round Blues (mono)
TTITLE9=Jay McShann - Bad Tale Boogie (mono)
TTITLE10=Jay McShann - McShann's Boogie Blues (mono)
TTITLE11=Jay McShann - Everything Will Be All Right (mono)
TTITLE12=Jay McShann - Pic's Boogie (mono)
TTITLE13=Jay McShann - Scotty's (mono)
TTITLE14=Jay McShann - Cover Up (mono)
TTITLE15=Jay McShann - (Scotty Can Blow) Kicks (mono)
TTITLE16=Julia Lee - Tonight's The Night (mono)
TTITLE17=Julia Lee - My Man Stands Out (mono)
TTITLE18=Julia Lee - Do You Want It (mono)
TTITLE19=Julia Lee - It Comes In Like A Lion (mono)
TTITLE20=Bus Moten - When You Want Chili (mono)
TTITLE21=Bus Moten - It's Hard To Laugh Or Smile (mono)
TTITLE22=Bus Moten - You'll Wind Up On Top (mono)
TTITLE23=Bus Moten - On The Gravy Train (mono)
EXTD=
EXTT0=
EXTT1=
EXTT2=
EXTT3=
EXTT4=
EXTT5=
EXTT6=
EXTT7=
EXTT8=
EXTT9=
EXTT10=
EXTT11=
EXTT12=
EXTT13=
EXTT14=
EXTT15=
EXTT16=
EXTT17=
EXTT18=
EXTT19=
EXTT20=
EXTT21=
EXTT22=
EXTT23=
PLAYORDER=
